<svg width="13" height="13" viewBox="0 0 13 13" fill="none" xmlns="http://www.w3.org/2000/svg">
<path d="M11.7909 8.79766C12.1616 8.95865 12.3351 9.3923 12.1335 9.74256C11.6356 10.6076 10.9434 11.3493 10.1077 11.9069C9.06841 12.6004 7.85128 12.9796 6.60204 12.9992C5.35279 13.0188 4.12436 12.678 3.06381 12.0175C2.00326 11.357 1.15555 10.4048 0.622143 9.27502C0.0887401 8.14521 -0.107743 6.8856 0.0562165 5.647C0.220176 4.40841 0.73763 3.24331 1.54663 2.29119C2.35563 1.33907 3.42189 0.640288 4.61776 0.278492C5.57932 -0.0124176 6.59192 -0.075542 7.57621 0.0897085C7.97477 0.156623 8.19935 0.56616 8.08809 0.954684V0.954684C7.97682 1.34321 7.57153 1.56226 7.17099 1.50842C6.45991 1.41284 5.73368 1.46993 5.04156 1.67932C4.11495 1.95965 3.28877 2.5011 2.66192 3.23884C2.03508 3.97658 1.63413 4.87935 1.50709 5.83906C1.38005 6.79878 1.53229 7.77477 1.94559 8.6502C2.35889 9.52563 3.01574 10.2634 3.8375 10.7752C4.65925 11.2869 5.61109 11.551 6.57906 11.5359C7.54703 11.5207 8.49011 11.2268 9.2954 10.6895C9.89689 10.2882 10.4025 9.76368 10.7805 9.1539C10.9935 8.81042 11.4202 8.63668 11.7909 8.79766V8.79766Z" fill="black"/>
</svg>
